<svg width="24" height="25" viewBox="0 0 24 25" fill="none" xmlns="http://www.w3.org/2000/svg">
<path d="M7.40561e-06 5.69582L1.8376 7.29958L1.88596 15.9352L1.93431 24.5709H7.40561e-06V5.69582Z" fill="#008A8A"/>
<path d="M7.47933 14.2081H9.41363V24.5709H7.47933V14.2081Z" fill="#008A8A"/>
<path d="M9.41363 17.539V19.3895H7.40561e-06V17.539H9.41363Z" fill="#008A8A"/>
<path d="M16.0548 22.9671V24.8176H7.47933V22.9671H16.0548Z" fill="#008A8A"/>
<path d="M23.5341 20.8082V22.6587H14.1204V20.8082H23.5341Z" fill="#008A8A"/>
<path d="M21.8527 11.489L23.2009 12.8159L16.0548 19.5745L14.1204 18.896L21.8527 11.489Z" fill="#008A8A"/>
<path d="M11.7126 1.06958L13.0823 2.37615L5.88316 9.2837L4.51339 7.97713L11.7126 1.06958Z" fill="#008A8A"/>
<path d="M14.1204 18.896H16.0548V24.5709H14.1204V18.896Z" fill="#008A8A"/>
<path d="M21.5998 10.1987H23.5341V24.5709H21.5998V10.1987Z" fill="#008A8A"/>
<path d="M10.4021 2.40642L11.7798 1.10745L21.079 10.1337L19.7013 11.4327L10.4021 2.40642Z" fill="#008A8A"/>
<path d="M4.72457e-06 7.88557L0 5.51077L9.41363 14.2081L7.47933 14.9791L4.72457e-06 7.88557Z" fill="#008A8A"/>
<path d="M9.60707 10.1987H11.1545V11.6791H9.60707V10.1987Z" fill="#008A8A"/>
<path d="M9.60707 7.85473H11.1545V9.33512H9.60707V7.85473Z" fill="#008A8A"/>
<path d="M12.1861 7.85473H13.7336V9.33512H12.1861V7.85473Z" fill="#008A8A"/>
<path d="M12.1861 10.1987H13.7336V11.6791H12.1861V10.1987Z" fill="#008A8A"/>
</svg>
